<svg xmlns="http://www.w3.org/2000/svg" viewBox="0 0 45.4 68"><defs><style>.cls-1{fill:#fff;}.cls-2{fill:#231f20;}</style></defs><title>Ресурс 1</title><g id="Слой_2" data-name="Слой 2"><g id="Layer_1" data-name="Layer 1"><polygon class="cls-1" points="45.4 0 0 0 0 68 45.4 68 45.4 0"/><polyline class="cls-2" points="44.7 0.7 44.7 67.3 0.7 67.3 0.7 0.7 44.7 0.7"/><rect class="cls-1" x="2.8" y="2.7" width="39.9" height="18.7"/><rect class="cls-1" x="2.8" y="23.5" width="39.9" height="34.2"/><polygon class="cls-1" points="2.8 65.2 2.8 59.7 10.8 59.7 10.8 61 6 61 6 61.8 10 61.8 10 63.1 6 63.1 6 63.9 11 63.9 11 65.2 2.8 65.2"/><path class="cls-1" d="M17.8,61.3a.7.7,0,0,0-.5-.4h-.8c-.7,0-1,.1-1,.3,0,.8,5.6.3,5.6,2.3,0,1.3-1.9,1.9-4.6,1.9s-4.3-.8-4.3-1.8h3.1a1,1,0,0,0,.5.4,2.77,2.77,0,0,0,.9.1c.8,0,1.3-.1,1.3-.4,0-.8-5.6-.3-5.6-2.4,0-1.2,1.8-1.7,4.3-1.7,2.7,0,4,.8,4.2,1.7Z"/><path class="cls-1" d="M25.9,62.1h1.3c1,0,1.5-.1,1.5-.5s-.5-.6-1.3-.6H25.9Zm0,1.2v1.9H22.7V59.7h4.6c3.3,0,4.3.5,4.3,1.6,0,.6-.5,1.2-1.6,1.3,1,.2,1.7.3,1.7,1.4,0,.7,0,1,.3,1v.2H28.7a1.85,1.85,0,0,1-.2-1c0-.7-.2-1-1.7-1h-.9Z"/><path class="cls-1" d="M36.9,61v.9h1.3c.6,0,1.1-.2,1.1-.5S38.7,61,38,61Zm0,1.9v1h1.4c.8,0,1.4-.1,1.4-.5s-.7-.5-1.8-.5Zm-3.3,2.3V59.7h4.7c2.2,0,4,.3,4,1.4,0,.6-.7,1-1.3,1.2,1.1.2,1.6.7,1.6,1.3,0,1.2-1.7,1.7-4.2,1.7H33.6Z"/><polyline class="cls-2" points="8.7 31.5 28.6 25.5 30.6 31.8 20.7 34.8 21.5 37.4 30.7 34.6 32.7 40.9 23.5 43.7 24.3 46.4 34.6 43.3 36.6 49.6 16.4 55.6 8.7 31.5"/><path class="cls-2" d="M3.9,11V4.8H6.4v1H4.8V7.3H6.2v1H4.8v1.8H6.4v1H3.9Z"/><path class="cls-2" d="M6.7,4.8h1l.7,4.5h0l.8-4.5h1L9,11H7.9Z"/><path class="cls-2" d="M10.7,11V4.8h2.6v1H11.7V7.3h1.4v1H11.7v1.8h1.6v1H10.7Z"/><path class="cls-2" d="M14.9,11h-1V4.8h1.8a.91.91,0,0,1,.8.4,2.13,2.13,0,0,1,.3,1.2,3,3,0,0,1-.2,1c-.1.3-.4.4-.7.5h0c.1,0,.1,0,.2.1s.2.1.3.2a.52.52,0,0,1,.2.4,1.48,1.48,0,0,1,.1.7v1.5c0,.2,0,.3.1.3h-1a1.27,1.27,0,0,1-.1-.6V9.4c0-.2,0-.3-.1-.4s-.1-.2-.2-.3-.2-.1-.4-.1h-.3V11Zm0-3.5h.4c.1,0,.2,0,.2-.1l.2-.2c0-.1.1-.2.1-.3V6.6c0-.3,0-.5-.1-.6a.52.52,0,0,0-.4-.2h-.4Z"/><path class="cls-2" d="M18.3,8.9,17.1,4.8h1.1l.7,2.6.7-2.6h1L19.3,8.9v2.2h-1Z"/><path class="cls-2" d="M22.6,11.1a1.22,1.22,0,0,1-.9-.3,1.79,1.79,0,0,1-.5-.7,3,3,0,0,1-.2-1V6.7a3,3,0,0,1,.2-1,1.79,1.79,0,0,1,.5-.7,1.5,1.5,0,0,1,1.8,0,1.79,1.79,0,0,1,.5.7,3,3,0,0,1,.2,1V9.1a3,3,0,0,1-.2,1,1.79,1.79,0,0,1-.5.7A1.22,1.22,0,0,1,22.6,11.1Zm0-.9a.37.37,0,0,0,.3-.1c.1-.1.1-.2.2-.4s.1-.4.1-.7V7a1.48,1.48,0,0,0-.1-.7.52.52,0,0,0-.2-.4.5.5,0,0,0-.6,0c-.1.1-.1.2-.2.4s-.1.4-.1.7V9a1.48,1.48,0,0,0,.1.7.52.52,0,0,0,.2.4C22.3,10.2,22.5,10.2,22.6,10.2Z"/><path class="cls-2" d="M25,11V4.8h1.3l1.2,4.3h0V4.8h.9V11H27.1L25.8,6.4h0V11Z"/><path class="cls-2" d="M29.3,11V4.8h2.5v1H30.2V7.3h1.5v1H30.2v1.8h1.6v1H29.3Z"/><path class="cls-2" d="M7,13.1v1H5.9v5.2h-1V14.1h-1v-1Z"/><path class="cls-2" d="M9,19.4a1.22,1.22,0,0,1-.9-.3,1.79,1.79,0,0,1-.5-.7,3,3,0,0,1-.2-1V15a3,3,0,0,1,.2-1,1.79,1.79,0,0,1,.5-.7A1.22,1.22,0,0,1,9,13a1.22,1.22,0,0,1,.9.3,1.79,1.79,0,0,1,.5.7,3,3,0,0,1,.2,1v2.4a3,3,0,0,1-.2,1,1.79,1.79,0,0,1-.5.7A1.22,1.22,0,0,1,9,19.4Zm0-.9a.37.37,0,0,0,.3-.1c.1-.1.1-.2.2-.4s.1-.4.1-.7v-2a1.48,1.48,0,0,0-.1-.7.52.52,0,0,0-.2-.4.37.37,0,0,0-.3-.1.37.37,0,0,0-.3.1c-.1.1-.1.2-.2.4s-.1.4-.1.7v2a1.48,1.48,0,0,0,.1.7.52.52,0,0,0,.2.4C8.8,18.4,8.9,18.5,9,18.5Z"/><path class="cls-2" d="M11.4,13.1H13a1.88,1.88,0,0,1,.8.2,1,1,0,0,1,.5.6,3,3,0,0,1,.2,1c0,.4.1.8.1,1.3v1.3c0,.2-.1.5-.1.7s-.1.4-.3.6a1,1,0,0,1-.5.4,1.45,1.45,0,0,1-.7.2H11.4Zm1,5.3h.5a.6.6,0,0,0,.4-.1.52.52,0,0,0,.2-.4,1.48,1.48,0,0,0,.1-.7V15.4a1.48,1.48,0,0,0-.1-.7.76.76,0,0,0-.2-.5.52.52,0,0,0-.4-.2h-.5Z"/><path class="cls-2" d="M16.9,19.4a1.22,1.22,0,0,1-.9-.3,1.79,1.79,0,0,1-.5-.7,3,3,0,0,1-.2-1V15a3,3,0,0,1,.2-1,1.79,1.79,0,0,1,.5-.7,1.22,1.22,0,0,1,.9-.3,1.22,1.22,0,0,1,.9.3,1.79,1.79,0,0,1,.5.7,3,3,0,0,1,.2,1v2.4a3,3,0,0,1-.2,1,1.79,1.79,0,0,1-.5.7A1.22,1.22,0,0,1,16.9,19.4Zm0-.9a.37.37,0,0,0,.3-.1c.1-.1.1-.2.2-.4s.1-.4.1-.7v-2a1.48,1.48,0,0,0-.1-.7.52.52,0,0,0-.2-.4.5.5,0,0,0-.6,0c-.1.1-.1.2-.2.4s-.1.4-.1.7v2a1.48,1.48,0,0,0,.1.7.52.52,0,0,0,.2.4C16.7,18.4,16.8,18.5,16.9,18.5Z"/><path class="cls-2" d="M22.2,17.6a3.08,3.08,0,0,1-.1,1,1,1,0,0,1-.4.5c-.2.1-.3.2-.5.2s-.4.1-.6.1a1.45,1.45,0,0,1-.7-.2c-.2-.1-.3-.3-.4-.4a1.42,1.42,0,0,1-.2-.6v-.8h1v.4a.37.37,0,0,0,.1.3.22.22,0,0,0,.2.2.37.37,0,0,0,.3.1.52.52,0,0,0,.4-.2.75.75,0,0,0,.1-.5.9.9,0,0,0-.1-.5c-.1-.1-.2-.3-.4-.4s-.3-.2-.5-.4-.3-.3-.5-.4-.3-.4-.4-.6a2,2,0,0,1-.1-.8,1.7,1.7,0,0,1,.1-.7,1.42,1.42,0,0,1,.2-.6,1,1,0,0,1,.5-.4,1.48,1.48,0,0,1,.7-.1,1.37,1.37,0,0,1,1.1.4,2.65,2.65,0,0,1,.3,1.4h-1v-.3a.37.37,0,0,0-.1-.3.35.35,0,0,0-.1-.2c-.1-.1-.1-.1-.2-.1a.52.52,0,0,0-.4.2.75.75,0,0,0-.1.5.75.75,0,0,0,.1.5c.1.1.2.3.4.4a2.19,2.19,0,0,0,.5.3c.2.1.3.3.5.4s.3.3.4.6A3.75,3.75,0,0,0,22.2,17.6Z"/></g></g></svg>