<svg xmlns="http://www.w3.org/2000/svg" viewBox="0 0 500 500"><g id="freepik--Shadow--inject-14"><path d="M468.48,454c0,3.5-96.59,6.34-215.74,6.34S37,457.52,37,454s96.59-6.33,215.74-6.33S468.48,450.52,468.48,454Z" style="fill:#f5f5f5"></path></g><g id="freepik--mistery-box--inject-14"><polygon points="385.33 205.79 404.3 222.81 321.99 222.81 305.91 205.79 385.33 205.79" style="fill:#2BCEDF"></polygon><polygon points="385.33 205.79 404.3 222.81 321.99 222.81 305.91 205.79 385.33 205.79" style="opacity:0.5"></polygon><rect x="305.91" y="205.79" width="79.46" height="79.46" style="fill:#2BCEDF"></rect><rect x="305.91" y="205.79" width="79.46" height="79.46" style="opacity:0.2"></rect><rect x="280.39" y="205.79" width="79.46" height="79.46" style="fill:#2BCEDF"></rect><polygon points="280.42 205.79 261.45 222.81 343.76 222.81 359.84 205.79 280.42 205.79" style="fill:#2BCEDF"></polygon><polygon points="280.42 205.79 261.45 222.81 343.76 222.81 359.84 205.79 280.42 205.79" style="fill:#fff;opacity:0.30000000000000004"></polygon><path d="M321.41,233.17c7.4,0,12.43,4.36,12.43,11.55,0,7.79-5.52,11.22-12.93,11.22l-.22,4.37h-5.47l-.28-8.68h1.82c6.25,0,11.06-1.11,11.06-6.91,0-3.87-2.38-6.25-6.36-6.25s-6.41,2.21-6.41,6.08h-5.91C309.08,237.86,313.89,233.17,321.41,233.17Zm-3.54,39.35a4,4,0,1,1,4-4A4,4,0,0,1,317.87,272.52Z" style="fill:#fff"></path><rect x="269.62" y="285.25" width="93.66" height="8.23" style="fill:#2BCEDF"></rect><rect x="269.62" y="285.25" width="93.66" height="8.23" style="opacity:0.30000000000000004"></rect><rect x="363.28" y="285.25" width="34.79" height="8.23" style="fill:#2BCEDF"></rect><rect x="363.28" y="285.25" width="34.79" height="8.23" style="opacity:0.5"></rect><rect x="325.97" y="293.48" width="5.64" height="154.89" style="fill:#263238"></rect><rect x="325.97" y="293.48" width="5.64" height="154.89" style="fill:#fff;opacity:0.2"></rect><polyline points="331.61 297.33 325.97 299.67 325.97 293.48 331.61 293.48 331.61 297.33" style="opacity:0.2"></polyline><path d="M309.33,445.22h38.93a8.13,8.13,0,0,1,8.13,8.13v0a0,0,0,0,1,0,0H301.19a0,0,0,0,1,0,0v0A8.13,8.13,0,0,1,309.33,445.22Z" style="fill:#2BCEDF"></path></g><g id="freepik--sspeech-bubble--inject-14"><circle cx="152.15" cy="109.24" r="21.05" style="fill:#2BCEDF"></circle><g style="opacity:0.7000000000000001"><circle cx="152.15" cy="109.24" r="21.05" style="fill:#fff"></circle></g><path d="M152.15,130.72a21.48,21.48,0,1,1,21.47-21.48A21.5,21.5,0,0,1,152.15,130.72Zm0-42.09a20.62,20.62,0,1,0,20.61,20.61A20.64,20.64,0,0,0,152.15,88.63Z" style="fill:#2BCEDF"></path><path d="M152.32,97.55c4.55,0,7.65,2.68,7.65,7.11,0,4.79-3.4,6.9-8,6.9l-.14,2.69h-3.36l-.17-5.34h1.12c3.84,0,6.8-.68,6.8-4.25a3.57,3.57,0,0,0-3.91-3.85c-2.42,0-3.95,1.36-3.95,3.74h-3.64C144.73,100.44,147.69,97.55,152.32,97.55Zm-2.18,24.22a2.49,2.49,0,1,1,2.45-2.49A2.45,2.45,0,0,1,150.14,121.77Z" style="fill:#2BCEDF"></path><path d="M165.31,125.66l6.87,3.41a.43.43,0,0,0,.6-.55l-3-7.79A21.43,21.43,0,0,1,165.31,125.66Z" style="fill:#2BCEDF"></path></g><g id="freepik--Character--inject-14"><path d="M170.77,164c1,4.84,42.12,2.92,40.2-3.33a28.55,28.55,0,0,0-1.5-3.25c-2.67-5.75-7.12-13-21.49-12.93C179.33,144.52,167.94,149.75,170.77,164Z" style="fill:#2BCEDF"></path><polygon points="221.75 435.85 223.86 446.51 229.49 446.51 230.25 435.85 221.75 435.85" style="fill:#ffc3bd"></polygon><path d="M228.75,445.16a2.45,2.45,0,0,1,2.43-.87c1.35.45,3.12,2.67,3.12,2.67s7.35,2.36,9.34,2.48,3.72,1.24,4.46,5.09H224s-.95-8.69-1.1-10.17,2.21.37,2.21.37Z" style="fill:#2BCEDF"></path><path d="M247.39,453.38l-4.34,0-19-.2c-.24,0-.24-.38,0-.37l1.28,0a.08.08,0,0,1,0-.05,4,4,0,0,0-2-5.09.18.18,0,0,1,.18-.32,4.33,4.33,0,0,1,2.15,5.46l2.67,0,19,.2C247.63,453,247.63,453.39,247.39,453.38Z"></path><path d="M233.45,448.47a2.34,2.34,0,0,1,3.44-.62c.19.14.38-.18.19-.32a2.71,2.71,0,0,0-4,.75c-.14.2.18.39.32.19Z" style="fill:#fff"></path><path d="M235.52,449.1a2.34,2.34,0,0,1,3.44-.63c.2.15.38-.17.19-.32a2.71,2.71,0,0,0-4,.76c-.14.2.19.38.32.19Z" style="fill:#fff"></path><path d="M237.67,449.72a2.33,2.33,0,0,1,3.43-.62c.2.14.38-.18.19-.32a2.7,2.7,0,0,0-3.95.76c-.13.19.19.38.33.18Z" style="fill:#fff"></path><polygon points="171.34 435.93 172.51 446.51 178.14 446.51 179.83 435.93 171.34 435.93" style="fill:#ffc3bd"></polygon><path d="M177.4,445.16a2.44,2.44,0,0,1,2.42-.87c1.36.45,3.13,2.67,3.13,2.67s7.35,2.36,9.34,2.48,3.72,1.24,4.46,5.09H172.69s-.95-8.69-1.1-10.17,2.21.37,2.21.37Z" style="fill:#2BCEDF"></path><path d="M196,453.38l-4.34,0-19-.2c-.24,0-.24-.38,0-.37l1.28,0a.08.08,0,0,1,0-.05,4,4,0,0,0-2-5.09.18.18,0,0,1,.18-.32,4.33,4.33,0,0,1,2.15,5.46l2.67,0,19,.2C196.28,453,196.28,453.39,196,453.38Z"></path><path d="M182.1,448.47a2.34,2.34,0,0,1,3.44-.62c.19.14.38-.18.19-.32a2.7,2.7,0,0,0-3.95.75c-.14.2.18.39.32.19Z" style="fill:#fff"></path><path d="M184.17,449.1a2.34,2.34,0,0,1,3.44-.63c.19.15.38-.17.19-.32a2.71,2.71,0,0,0-4,.76c-.14.2.19.38.32.19Z" style="fill:#fff"></path><path d="M186.32,449.72a2.33,2.33,0,0,1,3.43-.62c.2.14.38-.18.19-.32a2.7,2.7,0,0,0-3.95.76c-.13.19.19.38.33.18Z" style="fill:#fff"></path><path d="M219.88,436.23h12.43c1.08-16,4.12-69.07,1.72-95.33,1.73-36.43-3.84-84.78-3.84-84.78H190.8s2.89,32.36,15.84,84.26C206.55,381.5,216.59,422.61,219.88,436.23Z" style="fill:#263238"></path><path d="M204.52,331.66c7.12-29.09.87-66.8.87-66.8l-6.15,43.08Z" style="opacity:0.2"></path><polygon points="218.4 435.92 219.31 440.64 233.57 440.58 233.57 435.85 218.4 435.92" style="fill:#263238"></polygon><path d="M169.57,436.69H182c4.43-16.47,13.33-69.43,14.75-95.69,7.05-36.43,10.42-84.88,10.42-84.88H167.78s-3.67,32.73,1.72,84.63C168.45,386,169.28,422.61,169.57,436.69Z" style="fill:#263238"></path><polygon points="168.48 435.9 168.45 440.59 182.82 440.59 183.58 435.91 168.48 435.9" style="fill:#263238"></polygon><path d="M235.34,262.06C208,272.56,163.51,265,163.51,265c.53-13.36,1-39.82.81-61.81,0-.51,0-1,0-1.53,0-3.12-.08-6.14-.14-9,0-.35,0-.7,0-1C164,186,163.81,181,163.55,177c-.5-7.49,3.57-14.46,11-15.71,2.25-.38,4.68-.71,7.21-1l1.83-.19a177.62,177.62,0,0,1,21.75-.79l1.05,0,.56,0,.91,0c3.13.13,6.1.36,8.76.71,6,.78,11.41,5.55,11.51,11.65.09,5.59.64,17.39,1.43,30.7.3,5,.64,10.31,1,15.53C232,238.55,233.8,258.47,235.34,262.06Z" style="fill:#2BCEDF"></path><path d="M165.63,237.61a.08.08,0,0,1,0,0l0,0a.27.27,0,0,0-.13,0l-4,7.43-.76-.43-.19-.12-.12-.08-.22-.16-.46-.32-.37-.28c-.51-.38-.92-.72-1.36-1.08-.83-.71-1.62-1.41-2.39-2.12-1.53-1.41-3-2.82-4.46-4.25-2.88-2.89-5.67-5.83-8.38-8.85s-5.36-6.11-8-9.42c-.65-.83-1.31-1.69-2-2.61-.33-.48-.65-.92-1-1.47s-.68-1.09-1.07-1.82l-.31-.66-.16-.33-.22-.61-.19-.64a5.34,5.34,0,0,1-.21-1.06,8.82,8.82,0,0,1,0-2l.06-.49c0-.15.06-.34.08-.4l.15-.53a10.45,10.45,0,0,1,.4-1.06l.23-.5.13-.25.05-.09.43-.71c.34-.54.5-.75.72-1.06.85-1.17,1.53-2,2.24-2.85,2.79-3.29,5.55-6.2,8.34-9.15s5.61-5.78,8.48-8.57c5.71-5.63,11.51-11.1,17.56-16.37l11.44,12.58c-5.69,5.45-11.56,10.78-17.41,16.06l-8.74,7.92c-2.8,2.51-5.62,5.1-8.15,7.58q.3.54.63,1.08c1.94,3.2,4.14,6.45,6.3,9.69s4.42,6.47,6.68,9.64c1.12,1.6,2.25,3.18,3.4,4.71.57.77,1.15,1.5,1.71,2.21l.79,1,.31.37Z" style="fill:#2BCEDF"></path><path d="M196.9,210.69h0a.25.25,0,0,1-.23-.27c1.46-20.61-3.64-42.1-3.69-42.31a.25.25,0,0,1,.49-.12c.05.22,5.17,21.77,3.7,42.47A.25.25,0,0,1,196.9,210.69Z" style="fill:#fff"></path><path d="M208.67,210.22h0a.25.25,0,0,1-.23-.26c1.46-20.62-3.63-42.1-3.68-42.31a.25.25,0,1,1,.48-.12c.05.21,5.17,21.77,3.7,42.46A.25.25,0,0,1,208.67,210.22Z" style="fill:#fff"></path><path d="M230.55,218A159.12,159.12,0,0,1,208,168.75l21.56,33.72C229.84,207.51,230.18,212.78,230.55,218Z" style="opacity:0.2"></path><path d="M178,231.06s1.94,13.12,1.25,20.67c0,0,21.54,3.38,44.21-1.64a49.46,49.46,0,0,0-1.21-20.36C208.93,229.06,194,229.68,178,231.06Z" style="opacity:0.2"></path><path d="M210.55,117.55a16.37,16.37,0,0,0-13,.76c-2.63,1.37-4.91,3.46-4.85,6.6.13,7.33,2.17,19.58,2.17,19.58l24.73-11.18s1.8-6.13-1.09-10A16,16,0,0,0,210.55,117.55Z" style="fill:#263238"></path><path d="M192.78,132.58s.54-2.12-1.92-6.08.24-6.41,2.12-5.85c0,0-1-2.43.66-3.26s2.46.11,2.46.11a19,19,0,0,1,14.54-3.28c6.75,1.34,11.73-3.37,14.24-1.54s-2,3.55-2,3.55,4,2.23,3.42,4.31-4.34,2.24-4.34,2.24,3.85,2.56,2.28,4.26-6.47-.36-6.47-.36S198.3,126.58,192.78,132.58Z" style="fill:#263238"></path><path d="M205.65,153.6h0a.3.3,0,0,0,0,.08l-1.56,4.06a14.58,14.58,0,0,0-.31,2.52,13.82,13.82,0,0,0,.09,2c.78,1.36.91,4.26-2.35,3.92-4.12-.42-11.1-6.88-11.18-8.73,2.52-5.41,4.91-12.19,5.18-17.6l4.15,5.59Z" style="fill:#ffc3bd"></path><g style="opacity:0.2"><path d="M205.61,153.69l-1.56,4.06c-2.45-1.46-4.87-4.28-5.18-7.09-.22-2,.87-3.78,1.68-3.79Z"></path></g><path d="M217,146.09c-.34.88-.71,1.74-1.1,2.59-3.44,7.5-13.12,7.17-18.47.78,0,0,0,0,0,0a14,14,0,0,1-1.32-1.85c-3.25-5.4-1.88-9.14-.36-17.79a12,12,0,0,1,18.83-7.75C221.38,127,220.41,137.28,217,146.09Z" style="fill:#ffc3bd"></path><path d="M209.25,145.27a1.41,1.41,0,1,1-.65-2.14A1.61,1.61,0,0,1,209.25,145.27Z" style="fill:#fff"></path><path d="M203,128.46c2.25-.31.72-2.8,1.2-4.2,1.58-4.53,13.91-1.43,15.33,5.51,0,0-.34-5.29-4.19-8.53s-12.13-4.71-15.94-1-3.83,10.34-3.83,10.34a2.82,2.82,0,0,0,.64,2c.41.4,1.13,2.23,2.33,2.71,1,.42,1.8.25,2.18-1.23S201.44,128.67,203,128.46Z" style="fill:#263238"></path><path d="M190.69,134.61a8.3,8.3,0,0,0,2.72,5.76c2.19,1.95,4.56.31,5-2.43.42-2.46-.21-6.43-2.92-7.33s-5,1.3-4.83,4" style="fill:#ffc3bd"></path><path d="M208.36,135.1c-.16.68.07,1.31.51,1.41s.92-.35,1.08-1-.06-1.31-.5-1.41-.93.35-1.09,1" style="fill:#263238"></path><path d="M215.74,136.78c-.16.67.07,1.3.51,1.41s.92-.36,1.08-1-.06-1.3-.5-1.4-.92.35-1.09,1" style="fill:#263238"></path><path d="M218.38,134.76a.37.37,0,0,1-.26-.24,1.85,1.85,0,0,0-.83-1.17,2.11,2.11,0,0,0-1.43-.12.33.33,0,0,1-.43-.23.34.34,0,0,1,.23-.43,2.72,2.72,0,0,1,2,.17,2.46,2.46,0,0,1,1.17,1.59.34.34,0,0,1-.24.43A.25.25,0,0,1,218.38,134.76Z" style="fill:#263238"></path><path d="M206.93,132a.33.33,0,0,1-.16-.07.38.38,0,0,1-.05-.53,3,3,0,0,1,1.89-1,2.7,2.7,0,0,1,2,.74.39.39,0,0,1,0,.54.38.38,0,0,1-.53,0,2,2,0,0,0-1.44-.56,2.19,2.19,0,0,0-1.37.74A.38.38,0,0,1,206.93,132Z" style="fill:#263238"></path><path d="M213,135.6a21.37,21.37,0,0,0,1.28,5.21c.94,2.14-2.75,1.34-2.75,1.34Z" style="fill:#ed847e"></path><path d="M177.14,180.37,164.3,201.61c0-3.12-.08-6.14-.14-9,0-.35,0-.7,0-1Z" style="opacity:0.2"></path><path d="M239.16,212.18A8.85,8.85,0,0,1,228,208.66l-.44-.74-.87-1.49c-.15-.24-.29-.49-.43-.74-.47-.8-.93-1.61-1.4-2.42l-1.55-2.71-1.54-2.71c-.52-.9-1-1.81-1.53-2.71s-1-1.82-1.52-2.73l-.18-.33-2.84-5.14c-2-3.66-4-7.33-5.88-11s-3.82-7.42-5.61-11.21l7.87-5.15c2.75,3.16,5.39,6.4,8,9.65l.87,1.09,6-3.14c1.5,2.64,2.92,5.32,4.32,8s2.77,5.4,4.11,8.12,2.68,5.45,4,8.2,2.59,5.5,3.85,8.26l.35.78A8.8,8.8,0,0,1,239.16,212.18Z" style="fill:#2BCEDF"></path><path d="M223.26,200.56,223,200q-1.41-2.43-2.76-4.89c.5.9,1,1.81,1.53,2.71Z" style="fill:#2BCEDF"></path><path d="M212,161.58c-.19,1.52-1.29,3.88-3.5,3.8a12.45,12.45,0,0,1-4-.87h0c-1.69-.43-4.86-1.5-5.95-3.59-1.53-2.92.86-7.5.86-7.5-2.48-2.35-5.41-6.39-3.36-5.47s10.09,6.54,13,5.9c2.68-.59,3.62-2.91,4.62-2.44s-1,2.62-2.06,4.78A18.44,18.44,0,0,1,212,161.58Z" style="fill:#ffc3bd"></path><g style="opacity:0.2"><path d="M203.79,164.55l-.11,0c-.2-.1-5.06-2.38-5.94-4.86-.78-2.22.9-5.41,1.36-6.21a19.49,19.49,0,0,1-3.66-4c-.35-.72-.43-1.24-.24-1.58a.57.57,0,0,1,.44-.3c1,0,2.08.78,3.53,1.85a28.48,28.48,0,0,0,5.68,3.45c4.37,1.92,5.16.75,5.68,0l.19-.29c.58-.83,1.55-2.22,3.19-1.55a.24.24,0,0,1,.13.32.24.24,0,0,1-.32.14c-1.18-.47-1.87.34-2.59,1.38l-.19.28c-.78,1.15-1.91,2.12-6.29.2a28.69,28.69,0,0,1-5.77-3.51c-1.33-1-2.37-1.74-3.21-1.76,0,0,0,0,0,.07s-.11.34.26,1.1c.68,1.4,3.66,4,3.69,4a.24.24,0,0,1,0,.32s-2.22,3.68-1.42,6,5.64,4.55,5.68,4.57a.25.25,0,0,1-.1.48Z"></path></g><path d="M215.58,163.58,237,196.17S234.5,185.25,215.58,163.58Z" style="opacity:0.2"></path><path d="M164.17,237.78s8.62,2.65,9.31,4.33-2.14,1.25-2.14,1.25,3.07.64,3,1.83c-.1,1.42-3.05.95-3.05.95s2.49.62,2.34,1.66-3.53.77-3.53.77,1.68.73,1.1,1.38-6.84.2-8.82-1.21-.7-9.3-.12-11-.44-3.5,2-5.47l-.08,5.53Z" style="fill:#ffc3bd"></path><path d="M171.32,243.49h0L166,242.13a.14.14,0,0,1-.1-.16.16.16,0,0,1,.17-.1l5.3,1.36a.13.13,0,0,1,.1.16A.13.13,0,0,1,171.32,243.49Z" style="opacity:0.2"></path><path d="M171.11,246.25h0l-5.19-.95a.12.12,0,0,1-.11-.15A.14.14,0,0,1,166,245l5.2,1a.13.13,0,0,1,0,.26Z" style="opacity:0.2"></path><path d="M169.9,248.67l-3.89-.6a.13.13,0,0,1-.11-.15.14.14,0,0,1,.16-.11l3.88.6a.13.13,0,0,1,.11.15A.12.12,0,0,1,169.9,248.67Z" style="opacity:0.2"></path></g></svg>
