<svg width="24" height="24" viewBox="0 0 24 24" fill="none" xmlns="http://www.w3.org/2000/svg">
<path d="M21.7 9.6C20.7 5.7 17.5 2.7 13.6 2.1C10.7 1.6 7.8 2.5 5.6 4.4C3.3 6.3 2 9.2 2 12.2C2 16.6 4.8 20.5 8.9 21.9C9.2 22 9.5 22.1 9.9 22.1C10.5 22.1 11.2 21.9 11.7 21.5C12.5 20.9 13 19.9 13 18.9C13 17.5 14.1 16.6 15.6 16.6H17.7C20.1 16.6 22 14.7 22 12.3C22 11.3 21.9 10.5 21.7 9.6ZM17.7 14.5H15.6C13 14.5 11 16.4 11 18.8C11 19.2 10.8 19.5 10.5 19.8C10.3 19.9 10 20.1 9.5 20C6.2 18.9 4 15.7 4 12.2C4 9.8 5 7.5 6.9 5.9C8.3 4.7 10.1 4 12 4C12.4 4 12.9 4 13.3 4.1C16.4 4.6 19 7 19.8 10.1C20 10.8 20.1 11.5 20.1 12.2C20 13.5 19 14.5 17.7 14.5Z" fill="#212121"/>
<path d="M8.47962 14.2783C9.24981 13.8451 9.52303 12.8696 9.08986 12.0994C8.65669 11.3292 7.68117 11.056 6.91098 11.4891C6.14078 11.9223 5.86757 12.8978 6.30074 13.668C6.73391 14.4382 7.70942 14.7114 8.47962 14.2783Z" fill="#212121"/>
<path d="M10.6756 9.27882C11.4458 8.84565 11.719 7.87013 11.2859 7.09994C10.8527 6.32974 9.87719 6.05653 9.107 6.4897C8.33681 6.92287 8.06359 7.89838 8.49676 8.66858C8.92993 9.43877 9.90545 9.71199 10.6756 9.27882Z" fill="#212121"/>
<path d="M16.0702 9.98446C16.8404 9.55129 17.1136 8.57577 16.6805 7.80558C16.2473 7.03539 15.2718 6.76217 14.5016 7.19534C13.7314 7.62851 13.4582 8.60403 13.8913 9.37422C14.3245 10.1444 15.3 10.4176 16.0702 9.98446Z" fill="#212121"/>
</svg>
