<svg width="24" height="24" viewBox="0 0 24 24" fill="none" xmlns="http://www.w3.org/2000/svg">
<path d="M12 22C6.5 22 2 17.5 2 12C2 6.5 6.5 2 12 2C17.5 2 22 6.5 22 12C22 17.5 17.5 22 12 22ZM12 4C7.6 4 4 7.6 4 12C4 16.4 7.6 20 12 20C16.4 20 20 16.4 20 12C20 7.6 16.4 4 12 4Z" fill="#212121"/>
<path d="M16.9 13H12C11.4 13 11 12.6 11 12V7.10001C11 6.50001 11.4 6.10001 12 6.10001C12.6 6.10001 13 6.50001 13 7.10001V11H16.9C17.5 11 17.9 11.4 17.9 12C17.9 12.6 17.5 13 16.9 13Z" fill="#212121"/>
</svg>
